# Blender 5.2.2 LTS
# www.blender.org
mtllib sailboat.mtl
o hull
v 7.509325 0.302810 -1.094513
v -0.022039 0.210892 0.714489
v 7.365130 -0.302810 -1.094513
v 7.509325 0.302810 1.094513
v -0.022039 0.210892 -0.719003
v 7.365130 -0.302810 1.094513
v -0.743133 0.302810 -1.094513
v 1.772347 0.210892 0.714489
v 0.095917 -0.302810 -1.094513
v -0.743133 0.302810 1.094513
v 1.772347 0.210892 -0.719003
v 0.095917 -0.302810 1.094513
v 7.509325 0.539784 1.094513
v 7.509325 0.539784 -1.094513
v -1.294873 0.144063 0.000000
v 8.532200 0.653792 0.000000
v -1.438867 0.302810 0.000000
v 8.532200 0.115484 0.000000
v 7.509325 0.539784 0.000000
v -0.743133 0.302810 0.000000
v 7.765707 -0.621222 0.000000
v -0.020892 -0.583483 0.000000
v -0.022039 0.323517 0.714489
v 1.772347 0.375044 0.000000
v 1.772347 0.375044 0.714489
v -0.022039 0.323517 0.000000
v -0.022039 0.323517 -0.719003
v 1.772347 0.375044 -0.719003
vn 0.7306 -0.0000 -0.6828
vn -0.0000 -0.0000 1.0000
vn -0.5651 -0.7268 -0.3903
vn -0.4781 -0.8372 0.2657
vn 0.7198 -0.0907 0.6882
vn -0.0000 -0.0000 -1.0000
vn -0.0287 0.9996 -0.0000
vn -0.0000 1.0000 -0.0000
vn 0.7198 -0.0907 -0.6882
vn -0.4781 -0.8372 -0.2657
vn -0.5651 -0.7268 0.3903
vn -0.1108 0.9938 -0.0000
vn 0.6287 -0.6542 -0.4204
vn 0.6287 -0.6542 0.4204
vn -0.0024 -0.9646 0.2637
vn -0.0024 -0.9646 -0.2637
vn 0.7306 -0.0000 0.6828
vn 1.0000 -0.0000 -0.0000
vn -1.0000 -0.0000 -0.0000
vt 0.625000 0.625000
vt 0.625000 0.500000
vt 0.375000 0.750000
vt 0.625000 0.750000
vt 0.625000 1.000000
vt 0.375000 1.000000
vt 0.375000 0.125000
vt 0.625000 0.125000
vt 0.625000 0.250000
vt 0.375000 0.250000
vt 0.125000 0.625000
vt 0.139198 0.625000
vt 0.125000 0.750000
vt 0.375000 0.625000
vt 0.375000 0.500000
vt 0.875000 0.625000
vt 0.875000 0.750000
vt 0.798796 0.625000
vt 0.798796 0.706599
vt 0.853155 0.706599
vt 0.853155 0.625000
vt 0.625000 0.000000
vt 0.875000 0.500000
vt 0.853155 0.542886
vt 0.798796 0.542886
vt 0.125000 0.500000
vt 0.375000 0.000000
vt 0.347911 0.625000
vt 0.409994 0.000000
vt 0.409994 0.250000
vt 0.409994 0.124606
vt 0.426005 0.500000
vt 0.426005 0.750000
vt 0.426005 0.625394
vt 0.409994 1.000000
s 0
usemtl Material
f 16/1/1 1/2/1 14/2/1
f 6/3/2 4/4/2 10/5/2 12/6/2
f 15/7/3 17/8/3 7/9/3 9/10/3
f 15/11/4 22/12/4 12/13/4
f 18/14/5 16/1/5 4/4/5 6/3/5
f 9/10/6 7/9/6 1/2/6 3/15/6
f 20/16/7 10/17/7 13/4/7 19/1/7 24/18/7 25/19/7 23/20/7 26/21/7
f 7/9/6 14/2/6 1/2/6
f 10/5/2 4/4/2 13/4/2
f 17/8/8 10/22/8 20/8/8
f 17/8/8 20/8/8 7/9/8
f 24/18/7 19/1/7 14/2/7 7/23/7 20/16/7 26/21/7 27/24/7 28/25/7
f 3/15/9 1/2/9 16/1/9 18/14/9
f 9/26/10 22/12/10 15/11/10
f 12/27/11 10/22/11 17/8/11 15/7/11
f 16/1/12 19/1/12 13/4/12
f 21/28/13 3/15/13 18/14/13
f 6/3/14 21/28/14 18/14/14
f 12/13/15 22/12/15 21/28/15 6/3/15
f 22/12/16 9/26/16 3/15/16 21/28/16
f 4/4/17 16/1/17 13/4/17
f 19/1/12 16/1/12 14/2/12
f 23/29/18 2/27/18 5/10/18 27/30/18 26/31/18
f 27/30/2 5/10/2 11/15/2 28/32/2
f 11/15/19 8/3/19 25/33/19 24/34/19 28/32/19
f 8/3/6 2/6/6 23/35/6 25/33/6
f 5/26/8 2/13/8 8/3/8 11/15/8
o cabin
v 1.213809 0.224508 0.733678
v 1.178611 0.271586 0.681520
v 1.213809 0.224508 -0.733678
v 1.178611 0.271586 -0.698772
v 6.144454 0.224508 0.733678
v 6.144454 0.722185 0.733678
v 6.144454 0.224508 -0.733678
v 6.144454 0.722185 -0.733678
v 4.662952 0.224508 -0.733678
v 4.662952 0.853142 -0.733678
v 4.662952 0.224508 0.733678
v 4.662952 0.853142 0.733678
v 2.257185 0.224508 -0.733678
v 2.257185 0.925838 0.733678
v 2.257185 0.925838 -0.733678
v 2.257185 0.224508 0.733678
v -0.028170 0.224508 -0.733678
v -0.028170 0.224508 0.733678
v 0.074790 0.271586 0.681520
v 0.074790 0.271586 -0.698772
v 1.258543 0.468673 0.733678
v 1.258543 0.468673 -0.733678
v -0.028170 0.405010 0.733678
v -0.028170 0.405010 -0.733678
vn -0.0000 -1.0000 -0.0000
vn -0.0000 -0.0000 -1.0000
vn 1.0000 -0.0000 -0.0000
vn -0.0000 -0.0000 1.0000
vn -0.4162 0.9093 -0.0000
vn 0.0881 0.9961 -0.0000
vn 0.0302 0.9995 -0.0000
vn -1.0000 -0.0000 -0.0000
vn -0.0000 1.0000 -0.0000
vn -0.9267 0.3758 -0.0000
vn 0.7917 0.6109 -0.0000
vn -0.0055 0.2063 0.9785
vn -0.0080 0.3005 -0.9538
vt 0.125000 0.500000
vt 0.125000 0.750000
vt 0.375000 0.433476
vt 0.625000 0.433476
vt 0.625000 0.500000
vt 0.375000 0.500000
vt 0.625000 0.750000
vt 0.375000 0.750000
vt 0.375000 0.953086
vt 0.625000 0.953086
vt 0.625000 1.000000
vt 0.375000 1.000000
vt 0.308476 0.500000
vt 0.308476 0.750000
vt 0.828086 0.500000
vt 0.875000 0.500000
vt 0.875000 0.750000
vt 0.828086 0.750000
vt 0.691524 0.500000
vt 0.691524 0.750000
vt 0.171914 0.500000
vt 0.171914 0.750000
vt 0.625000 0.816524
vt 0.375000 0.816524
vt 0.375000 0.296914
vt 0.625000 0.296914
vt 0.375000 0.250000
vt 0.625000 0.250000
vt 0.375000 0.000000
vt 0.625000 0.000000
vt 0.875000 0.744053
vt 0.875000 0.505947
vt 0.875000 0.505947
vt 0.875000 0.744053
s 0
f 31/36/20 29/37/20 46/37/20 45/36/20
f 37/38/21 38/39/21 36/40/21 35/41/21
f 35/41/22 36/40/22 34/42/22 33/43/22
f 44/44/23 42/45/23 49/46/23 29/47/23
f 37/48/20 35/41/20 33/43/20 39/49/20
f 43/50/24 50/51/24 49/52/24 42/53/24
f 36/40/25 38/54/25 40/55/25 34/42/25
f 41/56/20 37/48/20 39/49/20 44/57/20
f 33/43/23 34/42/23 40/58/23 39/59/23
f 41/60/21 43/61/21 38/39/21 37/38/21
f 31/62/21 50/63/21 43/61/21 41/60/21
f 31/36/20 41/56/20 44/57/20 29/37/20
f 38/54/26 43/50/26 42/53/26 40/55/26
f 39/59/23 40/58/23 42/45/23 44/44/23
f 46/64/27 51/65/27 52/63/27 45/62/27
f 50/63/21 31/62/21 45/62/21 52/63/21
f 29/47/23 49/46/23 51/46/23 46/47/23
f 30/66/28 32/67/28 48/68/28 47/69/28
f 32/67/29 30/66/29 49/52/29 50/51/29
f 47/69/30 48/68/30 52/51/30 51/52/30
f 48/68/31 32/67/31 50/51/31 52/51/31
f 30/66/32 47/69/32 51/52/32 49/52/32
o mast
v 5.271616 0.755571 -0.174816
v 5.271616 7.382535 -0.174816
v 5.305721 0.755571 -0.171457
v 5.305721 7.382535 -0.171457
v 5.338515 0.755571 -0.161509
v 5.338515 7.382535 -0.161509
v 5.368739 0.755571 -0.145354
v 5.368739 7.382535 -0.145354
v 5.395230 0.755571 -0.123614
v 5.395230 7.382535 -0.123614
v 5.416970 0.755571 -0.097123
v 5.416970 7.382535 -0.097123
v 5.433125 0.755571 -0.066899
v 5.433125 7.382535 -0.066899
v 5.443073 0.755571 -0.034105
v 5.443073 7.382535 -0.034105
v 5.446432 0.755571 0.000000
v 5.446432 7.382535 0.000000
v 5.443073 0.755571 0.034105
v 5.443073 7.382535 0.034105
v 5.433125 0.755571 0.066899
v 5.433125 7.382535 0.066899
v 5.416970 0.755571 0.097123
v 5.416970 7.382535 0.097123
v 5.395230 0.755571 0.123614
v 5.395230 7.382535 0.123614
v 5.368739 0.755571 0.145354
v 5.368739 7.382535 0.145354
v 5.338515 0.755571 0.161509
v 5.338515 7.382535 0.161509
v 5.305721 0.755571 0.171457
v 5.305721 7.382535 0.171457
v 5.271616 0.755571 0.174816
v 5.271616 7.382535 0.174816
v 5.237511 0.755571 0.171457
v 5.237511 7.382535 0.171457
v 5.204717 0.755571 0.161509
v 5.204717 7.382535 0.161509
v 5.174493 0.755571 0.145354
v 5.174493 7.382535 0.145354
v 5.148002 0.755571 0.123614
v 5.148002 7.382535 0.123614
v 5.126262 0.755571 0.097123
v 5.126262 7.382535 0.097123
v 5.110107 0.755571 0.066899
v 5.110107 7.382535 0.066899
v 5.100159 0.755571 0.034105
v 5.100159 7.382535 0.034105
v 5.096800 0.755571 0.000000
v 5.096800 7.382535 0.000000
v 5.100159 0.755571 -0.034105
v 5.100159 7.382535 -0.034105
v 5.110107 0.755571 -0.066899
v 5.110107 7.382535 -0.066899
v 5.126262 0.755571 -0.097123
v 5.126262 7.382535 -0.097123
v 5.148002 0.755571 -0.123614
v 5.148002 7.382535 -0.123614
v 5.174493 0.755571 -0.145354
v 5.174493 7.382535 -0.145354
v 5.204717 0.755571 -0.161509
v 5.204717 7.382535 -0.161509
v 5.237511 0.755571 -0.171457
v 5.237511 7.382535 -0.171457
vn 0.0980 -0.0000 -0.9952
vn 0.2903 -0.0000 -0.9569
vn 0.4714 -0.0000 -0.8819
vn 0.6344 -0.0000 -0.7730
vn 0.7730 -0.0000 -0.6344
vn 0.8819 -0.0000 -0.4714
vn 0.9569 -0.0000 -0.2903
vn 0.9952 -0.0000 -0.0980
vn 0.9952 -0.0000 0.0980
vn 0.9569 -0.0000 0.2903
vn 0.8819 -0.0000 0.4714
vn 0.7730 -0.0000 0.6344
vn 0.6344 -0.0000 0.7730
vn 0.4714 -0.0000 0.8819
vn 0.2903 -0.0000 0.9569
vn 0.0980 -0.0000 0.9952
vn -0.0980 -0.0000 0.9952
vn -0.2903 -0.0000 0.9569
vn -0.4714 -0.0000 0.8819
vn -0.6344 -0.0000 0.7730
vn -0.7730 -0.0000 0.6344
vn -0.8819 -0.0000 0.4714
vn -0.9569 -0.0000 0.2903
vn -0.9952 -0.0000 0.0980
vn -0.9952 -0.0000 -0.0980
vn -0.9569 -0.0000 -0.2903
vn -0.8819 -0.0000 -0.4714
vn -0.7730 -0.0000 -0.6344
vn -0.6344 -0.0000 -0.7730
vn -0.4714 -0.0000 -0.8819
vn -0.0000 1.0000 -0.0000
vn -0.2903 -0.0000 -0.9569
vn -0.0980 -0.0000 -0.9952
vn -0.0000 -1.0000 -0.0000
vt 1.000000 0.500000
vt 1.000000 1.000000
vt 0.968750 1.000000
vt 0.968750 0.500000
vt 0.937500 1.000000
vt 0.937500 0.500000
vt 0.906250 1.000000
vt 0.906250 0.500000
vt 0.875000 1.000000
vt 0.875000 0.500000
vt 0.843750 1.000000
vt 0.843750 0.500000
vt 0.812500 1.000000
vt 0.812500 0.500000
vt 0.781250 1.000000
vt 0.781250 0.500000
vt 0.750000 1.000000
vt 0.750000 0.500000
vt 0.718750 1.000000
vt 0.718750 0.500000
vt 0.687500 1.000000
vt 0.687500 0.500000
vt 0.656250 1.000000
vt 0.656250 0.500000
vt 0.625000 1.000000
vt 0.625000 0.500000
vt 0.593750 1.000000
vt 0.593750 0.500000
vt 0.562500 1.000000
vt 0.562500 0.500000
vt 0.531250 1.000000
vt 0.531250 0.500000
vt 0.500000 1.000000
vt 0.500000 0.500000
vt 0.468750 1.000000
vt 0.468750 0.500000
vt 0.437500 1.000000
vt 0.437500 0.500000
vt 0.406250 1.000000
vt 0.406250 0.500000
vt 0.375000 1.000000
vt 0.375000 0.500000
vt 0.343750 1.000000
vt 0.343750 0.500000
vt 0.312500 1.000000
vt 0.312500 0.500000
vt 0.281250 1.000000
vt 0.281250 0.500000
vt 0.250000 1.000000
vt 0.250000 0.500000
vt 0.218750 1.000000
vt 0.218750 0.500000
vt 0.187500 1.000000
vt 0.187500 0.500000
vt 0.156250 1.000000
vt 0.156250 0.500000
vt 0.125000 1.000000
vt 0.125000 0.500000
vt 0.093750 1.000000
vt 0.093750 0.500000
vt 0.062500 1.000000
vt 0.062500 0.500000
vt 0.296822 0.485388
vt 0.250000 0.490000
vt 0.203178 0.485388
vt 0.158156 0.471731
vt 0.116663 0.449553
vt 0.080294 0.419706
vt 0.050447 0.383337
vt 0.028269 0.341844
vt 0.014612 0.296822
vt 0.010000 0.250000
vt 0.014612 0.203178
vt 0.028269 0.158156
vt 0.050447 0.116663
vt 0.080294 0.080294
vt 0.116663 0.050447
vt 0.158156 0.028269
vt 0.203178 0.014612
vt 0.250000 0.010000
vt 0.296822 0.014612
vt 0.341844 0.028269
vt 0.383337 0.050447
vt 0.419706 0.080294
vt 0.449553 0.116663
vt 0.471731 0.158156
vt 0.485388 0.203178
vt 0.490000 0.250000
vt 0.485388 0.296822
vt 0.471731 0.341844
vt 0.449553 0.383337
vt 0.419706 0.419706
vt 0.383337 0.449553
vt 0.341844 0.471731
vt 0.031250 1.000000
vt 0.031250 0.500000
vt 0.000000 1.000000
vt 0.000000 0.500000
vt 0.750000 0.490000
vt 0.796822 0.485388
vt 0.841844 0.471731
vt 0.883337 0.449553
vt 0.919706 0.419706
vt 0.949553 0.383337
vt 0.971731 0.341844
vt 0.985388 0.296822
vt 0.990000 0.250000
vt 0.985388 0.203178
vt 0.971731 0.158156
vt 0.949553 0.116663
vt 0.919706 0.080294
vt 0.883337 0.050447
vt 0.841844 0.028269
vt 0.796822 0.014612
vt 0.750000 0.010000
vt 0.703178 0.014612
vt 0.658156 0.028269
vt 0.616663 0.050447
vt 0.580294 0.080294
vt 0.550447 0.116663
vt 0.528269 0.158156
vt 0.514612 0.203178
vt 0.510000 0.250000
vt 0.514612 0.296822
vt 0.528269 0.341844
vt 0.550447 0.383337
vt 0.580294 0.419706
vt 0.616663 0.449553
vt 0.658156 0.471731
vt 0.703178 0.485388
s 0
f 53/70/33 54/71/33 56/72/33 55/73/33
f 55/73/34 56/72/34 58/74/34 57/75/34
f 57/75/35 58/74/35 60/76/35 59/77/35
f 59/77/36 60/76/36 62/78/36 61/79/36
f 61/79/37 62/78/37 64/80/37 63/81/37
f 63/81/38 64/80/38 66/82/38 65/83/38
f 65/83/39 66/82/39 68/84/39 67/85/39
f 67/85/40 68/84/40 70/86/40 69/87/40
f 69/87/41 70/86/41 72/88/41 71/89/41
f 71/89/42 72/88/42 74/90/42 73/91/42
f 73/91/43 74/90/43 76/92/43 75/93/43
f 75/93/44 76/92/44 78/94/44 77/95/44
f 77/95/45 78/94/45 80/96/45 79/97/45
f 79/97/46 80/96/46 82/98/46 81/99/46
f 81/99/47 82/98/47 84/100/47 83/101/47
f 83/101/48 84/100/48 86/102/48 85/103/48
f 85/103/49 86/102/49 88/104/49 87/105/49
f 87/105/50 88/104/50 90/106/50 89/107/50
f 89/107/51 90/106/51 92/108/51 91/109/51
f 91/109/52 92/108/52 94/110/52 93/111/52
f 93/111/53 94/110/53 96/112/53 95/113/53
f 95/113/54 96/112/54 98/114/54 97/115/54
f 97/115/55 98/114/55 100/116/55 99/117/55
f 99/117/56 100/116/56 102/118/56 101/119/56
f 101/119/57 102/118/57 104/120/57 103/121/57
f 103/121/58 104/120/58 106/122/58 105/123/58
f 105/123/59 106/122/59 108/124/59 107/125/59
f 107/125/60 108/124/60 110/126/60 109/127/60
f 109/127/61 110/126/61 112/128/61 111/129/61
f 111/129/62 112/128/62 114/130/62 113/131/62
f 56/132/63 54/133/63 116/134/63 114/135/63 112/136/63 110/137/63 108/138/63 106/139/63 104/140/63 102/141/63 100/142/63 98/143/63 96/144/63 94/145/63 92/146/63 90/147/63 88/148/63 86/149/63 84/150/63 82/151/63 80/152/63 78/153/63 76/154/63 74/155/63 72/156/63 70/157/63 68/158/63 66/159/63 64/160/63 62/161/63 60/162/63 58/163/63
f 113/131/64 114/130/64 116/164/64 115/165/64
f 115/165/65 116/164/65 54/166/65 53/167/65
f 53/168/66 55/169/66 57/170/66 59/171/66 61/172/66 63/173/66 65/174/66 67/175/66 69/176/66 71/177/66 73/178/66 75/179/66 77/180/66 79/181/66 81/182/66 83/183/66 85/184/66 87/185/66 89/186/66 91/187/66 93/188/66 95/189/66 97/190/66 99/191/66 101/192/66 103/193/66 105/194/66 107/195/66 109/196/66 111/197/66 113/198/66 115/199/66
o boom
v 5.174382 2.226957 -0.159285
v 0.541263 2.226958 -0.159285
v 5.174382 2.258032 -0.156224
v 0.541263 2.258033 -0.156224
v 5.174382 2.287913 -0.147160
v 0.541263 2.287913 -0.147160
v 5.174382 2.315451 -0.132440
v 0.541263 2.315451 -0.132440
v 5.174382 2.339588 -0.112631
v 0.541263 2.339589 -0.112631
v 5.174382 2.359397 -0.088494
v 0.541263 2.359398 -0.088494
v 5.174382 2.374117 -0.060956
v 0.541263 2.374117 -0.060956
v 5.174382 2.383181 -0.031075
v 0.541263 2.383182 -0.031075
v 5.174382 2.386242 0.000000
v 0.541263 2.386242 0.000000
v 5.174382 2.383181 0.031075
v 0.541263 2.383182 0.031075
v 5.174382 2.374117 0.060956
v 0.541263 2.374117 0.060956
v 5.174382 2.359397 0.088494
v 0.541263 2.359398 0.088494
v 5.174382 2.339588 0.112631
v 0.541263 2.339589 0.112631
v 5.174382 2.315451 0.132440
v 0.541263 2.315451 0.132440
v 5.174382 2.287913 0.147160
v 0.541263 2.287913 0.147160
v 5.174382 2.258032 0.156224
v 0.541263 2.258033 0.156224
v 5.174382 2.226957 0.159285
v 0.541263 2.226958 0.159285
v 5.174382 2.195882 0.156224
v 0.541263 2.195883 0.156224
v 5.174382 2.166002 0.147160
v 0.541263 2.166002 0.147160
v 5.174382 2.138463 0.132440
v 0.541263 2.138464 0.132440
v 5.174382 2.114326 0.112631
v 0.541263 2.114326 0.112631
v 5.174382 2.094517 0.088494
v 0.541263 2.094517 0.088494
v 5.174382 2.079798 0.060956
v 0.541263 2.079798 0.060956
v 5.174382 2.070733 0.031075
v 0.541263 2.070734 0.031075
v 5.174382 2.067673 0.000000
v 0.541263 2.067673 0.000000
v 5.174382 2.070733 -0.031075
v 0.541263 2.070734 -0.031075
v 5.174382 2.079798 -0.060956
v 0.541263 2.079798 -0.060956
v 5.174382 2.094517 -0.088494
v 0.541263 2.094517 -0.088494
v 5.174382 2.114326 -0.112631
v 0.541263 2.114326 -0.112631
v 5.174382 2.138463 -0.132440
v 0.541263 2.138464 -0.132440
v 5.174382 2.166002 -0.147160
v 0.541263 2.166002 -0.147160
v 5.174382 2.195882 -0.156224
v 0.541263 2.195883 -0.156224
vn -0.0000 0.0980 -0.9952
vn -0.0000 0.2903 -0.9569
vn -0.0000 0.4714 -0.8819
vn -0.0000 0.6344 -0.7730
vn -0.0000 0.7730 -0.6344
vn -0.0000 0.8819 -0.4714
vn -0.0000 0.9569 -0.2903
vn -0.0000 0.9952 -0.0980
vn -0.0000 0.9952 0.0980
vn -0.0000 0.9569 0.2903
vn -0.0000 0.8819 0.4714
vn -0.0000 0.7730 0.6344
vn -0.0000 0.6344 0.7730
vn -0.0000 0.4714 0.8819
vn -0.0000 0.2903 0.9569
vn -0.0000 0.0980 0.9952
vn -0.0000 -0.0980 0.9952
vn -0.0000 -0.2903 0.9569
vn -0.0000 -0.4714 0.8819
vn -0.0000 -0.6344 0.7730
vn -0.0000 -0.7730 0.6344
vn -0.0000 -0.8819 0.4714
vn -0.0000 -0.9569 0.2903
vn -0.0000 -0.9952 0.0980
vn -0.0000 -0.9952 -0.0980
vn -0.0000 -0.9569 -0.2903
vn -0.0000 -0.8819 -0.4714
vn -0.0000 -0.7730 -0.6344
vn -0.0000 -0.6344 -0.7730
vn -0.0000 -0.4714 -0.8819
vn -1.0000 -0.0000 -0.0000
vn -0.0000 -0.2903 -0.9569
vn -0.0000 -0.0980 -0.9952
vn 1.0000 -0.0000 -0.0000
vt 1.000000 0.500000
vt 1.000000 1.000000
vt 0.968750 1.000000
vt 0.968750 0.500000
vt 0.937500 1.000000
vt 0.937500 0.500000
vt 0.906250 1.000000
vt 0.906250 0.500000
vt 0.875000 1.000000
vt 0.875000 0.500000
vt 0.843750 1.000000
vt 0.843750 0.500000
vt 0.812500 1.000000
vt 0.812500 0.500000
vt 0.781250 1.000000
vt 0.781250 0.500000
vt 0.750000 1.000000
vt 0.750000 0.500000
vt 0.718750 1.000000
vt 0.718750 0.500000
vt 0.687500 1.000000
vt 0.687500 0.500000
vt 0.656250 1.000000
vt 0.656250 0.500000
vt 0.625000 1.000000
vt 0.625000 0.500000
vt 0.593750 1.000000
vt 0.593750 0.500000
vt 0.562500 1.000000
vt 0.562500 0.500000
vt 0.531250 1.000000
vt 0.531250 0.500000
vt 0.500000 1.000000
vt 0.500000 0.500000
vt 0.468750 1.000000
vt 0.468750 0.500000
vt 0.437500 1.000000
vt 0.437500 0.500000
vt 0.406250 1.000000
vt 0.406250 0.500000
vt 0.375000 1.000000
vt 0.375000 0.500000
vt 0.343750 1.000000
vt 0.343750 0.500000
vt 0.312500 1.000000
vt 0.312500 0.500000
vt 0.281250 1.000000
vt 0.281250 0.500000
vt 0.250000 1.000000
vt 0.250000 0.500000
vt 0.218750 1.000000
vt 0.218750 0.500000
vt 0.187500 1.000000
vt 0.187500 0.500000
vt 0.156250 1.000000
vt 0.156250 0.500000
vt 0.125000 1.000000
vt 0.125000 0.500000
vt 0.093750 1.000000
vt 0.093750 0.500000
vt 0.062500 1.000000
vt 0.062500 0.500000
vt 0.296822 0.485388
vt 0.250000 0.490000
vt 0.203178 0.485388
vt 0.158156 0.471731
vt 0.116663 0.449553
vt 0.080294 0.419706
vt 0.050447 0.383337
vt 0.028269 0.341844
vt 0.014612 0.296822
vt 0.010000 0.250000
vt 0.014612 0.203178
vt 0.028269 0.158156
vt 0.050447 0.116663
vt 0.080294 0.080294
vt 0.116663 0.050447
vt 0.158156 0.028269
vt 0.203178 0.014612
vt 0.250000 0.010000
vt 0.296822 0.014612
vt 0.341844 0.028269
vt 0.383337 0.050447
vt 0.419706 0.080294
vt 0.449553 0.116663
vt 0.471731 0.158156
vt 0.485388 0.203178
vt 0.490000 0.250000
vt 0.485388 0.296822
vt 0.471731 0.341844
vt 0.449553 0.383337
vt 0.419706 0.419706
vt 0.383337 0.449553
vt 0.341844 0.471731
vt 0.031250 1.000000
vt 0.031250 0.500000
vt 0.000000 1.000000
vt 0.000000 0.500000
vt 0.750000 0.490000
vt 0.796822 0.485388
vt 0.841844 0.471731
vt 0.883337 0.449553
vt 0.919706 0.419706
vt 0.949553 0.383337
vt 0.971731 0.341844
vt 0.985388 0.296822
vt 0.990000 0.250000
vt 0.985388 0.203178
vt 0.971731 0.158156
vt 0.949553 0.116663
vt 0.919706 0.080294
vt 0.883337 0.050447
vt 0.841844 0.028269
vt 0.796822 0.014612
vt 0.750000 0.010000
vt 0.703178 0.014612
vt 0.658156 0.028269
vt 0.616663 0.050447
vt 0.580294 0.080294
vt 0.550447 0.116663
vt 0.528269 0.158156
vt 0.514612 0.203178
vt 0.510000 0.250000
vt 0.514612 0.296822
vt 0.528269 0.341844
vt 0.550447 0.383337
vt 0.580294 0.419706
vt 0.616663 0.449553
vt 0.658156 0.471731
vt 0.703178 0.485388
s 0
f 117/200/67 118/201/67 120/202/67 119/203/67
f 119/203/68 120/202/68 122/204/68 121/205/68
f 121/205/69 122/204/69 124/206/69 123/207/69
f 123/207/70 124/206/70 126/208/70 125/209/70
f 125/209/71 126/208/71 128/210/71 127/211/71
f 127/211/72 128/210/72 130/212/72 129/213/72
f 129/213/73 130/212/73 132/214/73 131/215/73
f 131/215/74 132/214/74 134/216/74 133/217/74
f 133/217/75 134/216/75 136/218/75 135/219/75
f 135/219/76 136/218/76 138/220/76 137/221/76
f 137/221/77 138/220/77 140/222/77 139/223/77
f 139/223/78 140/222/78 142/224/78 141/225/78
f 141/225/79 142/224/79 144/226/79 143/227/79
f 143/227/80 144/226/80 146/228/80 145/229/80
f 145/229/81 146/228/81 148/230/81 147/231/81
f 147/231/82 148/230/82 150/232/82 149/233/82
f 149/233/83 150/232/83 152/234/83 151/235/83
f 151/235/84 152/234/84 154/236/84 153/237/84
f 153/237/85 154/236/85 156/238/85 155/239/85
f 155/239/86 156/238/86 158/240/86 157/241/86
f 157/241/87 158/240/87 160/242/87 159/243/87
f 159/243/88 160/242/88 162/244/88 161/245/88
f 161/245/89 162/244/89 164/246/89 163/247/89
f 163/247/90 164/246/90 166/248/90 165/249/90
f 165/249/91 166/248/91 168/250/91 167/251/91
f 167/251/92 168/250/92 170/252/92 169/253/92
f 169/253/93 170/252/93 172/254/93 171/255/93
f 171/255/94 172/254/94 174/256/94 173/257/94
f 173/257/95 174/256/95 176/258/95 175/259/95
f 175/259/96 176/258/96 178/260/96 177/261/96
f 120/262/97 118/263/97 180/264/97 178/265/97 176/266/97 174/267/97 172/268/97 170/269/97 168/270/97 166/271/97 164/272/97 162/273/97 160/274/97 158/275/97 156/276/97 154/277/97 152/278/97 150/279/97 148/280/97 146/281/97 144/282/97 142/283/97 140/284/97 138/285/97 136/286/97 134/287/97 132/288/97 130/289/97 128/290/97 126/291/97 124/292/97 122/293/97
f 177/261/98 178/260/98 180/294/98 179/295/98
f 179/295/99 180/294/99 118/296/99 117/297/99
f 117/298/100 119/299/100 121/300/100 123/301/100 125/302/100 127/303/100 129/304/100 131/305/100 133/306/100 135/307/100 137/308/100 139/309/100 141/310/100 143/311/100 145/312/100 147/313/100 149/314/100 151/315/100 153/316/100 155/317/100 157/318/100 159/319/100 161/320/100 163/321/100 165/322/100 167/323/100 169/324/100 171/325/100 173/326/100 175/327/100 177/328/100 179/329/100
o bowsprit
v 7.691704 0.656015 -0.131529
v 11.925404 0.848139 -0.093277
v 7.693724 0.632473 -0.129263
v 11.927218 0.826989 -0.091241
v 7.695602 0.609819 -0.122432
v 11.928905 0.806636 -0.085104
v 7.697266 0.588923 -0.111298
v 11.930401 0.787862 -0.075100
v 7.698651 0.570587 -0.096288
v 11.931645 0.771389 -0.061615
v 7.699706 0.555517 -0.077980
v 11.932592 0.757849 -0.045167
v 7.700388 0.544291 -0.057078
v 11.933206 0.747764 -0.026388
v 7.700672 0.537341 -0.034384
v 11.933461 0.741520 -0.005999
v 7.700547 0.534934 -0.010771
v 11.933349 0.739357 0.015216
v 7.700018 0.537163 0.012855
v 11.932874 0.741359 0.036442
v 7.699105 0.543941 0.035584
v 11.932053 0.747449 0.056862
v 7.697843 0.555009 0.056544
v 11.930920 0.757393 0.075693
v 7.696281 0.569941 0.074929
v 11.929516 0.770808 0.092211
v 7.694478 0.588162 0.090032
v 11.927896 0.787179 0.105780
v 7.692505 0.608974 0.101274
v 11.926123 0.805877 0.115880
v 7.690436 0.631576 0.108221
v 11.924265 0.826183 0.122122
v 7.688352 0.655100 0.110608
v 11.922392 0.847317 0.124266
v 7.686331 0.678641 0.108342
v 11.920577 0.868467 0.122230
v 7.684453 0.701295 0.101511
v 11.918890 0.888820 0.116093
v 7.682789 0.722191 0.090377
v 11.917395 0.907594 0.106090
v 7.681404 0.740527 0.075367
v 11.916150 0.924067 0.092605
v 7.680349 0.755597 0.057059
v 11.915203 0.937607 0.076156
v 7.679667 0.766823 0.036157
v 11.914590 0.947693 0.057377
v 7.679383 0.773773 0.013463
v 11.914334 0.953937 0.036988
v 7.679508 0.776180 -0.010151
v 11.914446 0.956099 0.015773
v 7.680037 0.773952 -0.033776
v 11.914922 0.954097 -0.005452
v 7.680950 0.767173 -0.056505
v 11.915742 0.948007 -0.025873
v 7.682212 0.756105 -0.077465
v 11.916876 0.938064 -0.044704
v 7.683774 0.741174 -0.095850
v 11.918280 0.924649 -0.061221
v 7.685577 0.722952 -0.110953
v 11.919899 0.908277 -0.074791
v 7.687551 0.702140 -0.122195
v 11.921672 0.889579 -0.084891
v 7.689619 0.679538 -0.129142
v 11.923531 0.869273 -0.091132
vn 0.0133 -0.0947 -0.9954
vn 0.0218 -0.2870 -0.9577
vn 0.0296 -0.4682 -0.8831
vn 0.0363 -0.6314 -0.7746
vn 0.0417 -0.7702 -0.6364
vn 0.0457 -0.8794 -0.4738
vn 0.0480 -0.9549 -0.2930
vn 0.0486 -0.9937 -0.1010
vn 0.0474 -0.9944 0.0949
vn 0.0446 -0.9569 0.2871
vn 0.0401 -0.8826 0.4685
vn 0.0342 -0.7744 0.6318
vn 0.0270 -0.6363 0.7709
vn 0.0190 -0.4738 0.8804
vn 0.0103 -0.2929 0.9561
vn 0.0014 -0.1008 0.9949
vn -0.0075 0.0952 0.9954
vn -0.0160 0.2875 0.9577
vn -0.0238 0.4686 0.8831
vn -0.0305 0.6318 0.7746
vn -0.0360 0.7706 0.6364
vn -0.0399 0.8797 0.4738
vn -0.0423 0.9552 0.2930
vn -0.0428 0.9940 0.1011
vn -0.0417 0.9946 -0.0948
vn -0.0388 0.9571 -0.2870
vn -0.0343 0.8829 -0.4683
vn -0.0284 0.7747 -0.6316
vn -0.0213 0.6368 -0.7708
vn -0.0132 0.4742 -0.8803
vn 0.9961 0.0868 0.0141
vn -0.0046 0.2934 -0.9560
vn 0.0044 0.1013 -0.9948
vn -0.9961 -0.0868 -0.0141
vt 1.000000 0.500000
vt 1.000000 1.000000
vt 0.968750 1.000000
vt 0.968750 0.500000
vt 0.937500 1.000000
vt 0.937500 0.500000
vt 0.906250 1.000000
vt 0.906250 0.500000
vt 0.875000 1.000000
vt 0.875000 0.500000
vt 0.843750 1.000000
vt 0.843750 0.500000
vt 0.812500 1.000000
vt 0.812500 0.500000
vt 0.781250 1.000000
vt 0.781250 0.500000
vt 0.750000 1.000000
vt 0.750000 0.500000
vt 0.718750 1.000000
vt 0.718750 0.500000
vt 0.687500 1.000000
vt 0.687500 0.500000
vt 0.656250 1.000000
vt 0.656250 0.500000
vt 0.625000 1.000000
vt 0.625000 0.500000
vt 0.593750 1.000000
vt 0.593750 0.500000
vt 0.562500 1.000000
vt 0.562500 0.500000
vt 0.531250 1.000000
vt 0.531250 0.500000
vt 0.500000 1.000000
vt 0.500000 0.500000
vt 0.468750 1.000000
vt 0.468750 0.500000
vt 0.437500 1.000000
vt 0.437500 0.500000
vt 0.406250 1.000000
vt 0.406250 0.500000
vt 0.375000 1.000000
vt 0.375000 0.500000
vt 0.343750 1.000000
vt 0.343750 0.500000
vt 0.312500 1.000000
vt 0.312500 0.500000
vt 0.281250 1.000000
vt 0.281250 0.500000
vt 0.250000 1.000000
vt 0.250000 0.500000
vt 0.218750 1.000000
vt 0.218750 0.500000
vt 0.187500 1.000000
vt 0.187500 0.500000
vt 0.156250 1.000000
vt 0.156250 0.500000
vt 0.125000 1.000000
vt 0.125000 0.500000
vt 0.093750 1.000000
vt 0.093750 0.500000
vt 0.062500 1.000000
vt 0.062500 0.500000
vt 0.296822 0.485388
vt 0.250000 0.490000
vt 0.203178 0.485388
vt 0.158156 0.471731
vt 0.116663 0.449553
vt 0.080294 0.419706
vt 0.050447 0.383337
vt 0.028269 0.341844
vt 0.014612 0.296822
vt 0.010000 0.250000
vt 0.014612 0.203178
vt 0.028269 0.158156
vt 0.050447 0.116663
vt 0.080294 0.080294
vt 0.116663 0.050447
vt 0.158156 0.028269
vt 0.203178 0.014612
vt 0.250000 0.010000
vt 0.296822 0.014612
vt 0.341844 0.028269
vt 0.383337 0.050447
vt 0.419706 0.080294
vt 0.449553 0.116663
vt 0.471731 0.158156
vt 0.485388 0.203178
vt 0.490000 0.250000
vt 0.485388 0.296822
vt 0.471731 0.341844
vt 0.449553 0.383337
vt 0.419706 0.419706
vt 0.383337 0.449553
vt 0.341844 0.471731
vt 0.031250 1.000000
vt 0.031250 0.500000
vt 0.000000 1.000000
vt 0.000000 0.500000
vt 0.750000 0.490000
vt 0.796822 0.485388
vt 0.841844 0.471731
vt 0.883337 0.449553
vt 0.919706 0.419706
vt 0.949553 0.383337
vt 0.971731 0.341844
vt 0.985388 0.296822
vt 0.990000 0.250000
vt 0.985388 0.203178
vt 0.971731 0.158156
vt 0.949553 0.116663
vt 0.919706 0.080294
vt 0.883337 0.050447
vt 0.841844 0.028269
vt 0.796822 0.014612
vt 0.750000 0.010000
vt 0.703178 0.014612
vt 0.658156 0.028269
vt 0.616663 0.050447
vt 0.580294 0.080294
vt 0.550447 0.116663
vt 0.528269 0.158156
vt 0.514612 0.203178
vt 0.510000 0.250000
vt 0.514612 0.296822
vt 0.528269 0.341844
vt 0.550447 0.383337
vt 0.580294 0.419706
vt 0.616663 0.449553
vt 0.658156 0.471731
vt 0.703178 0.485388
s 0
f 181/330/101 182/331/101 184/332/101 183/333/101
f 183/333/102 184/332/102 186/334/102 185/335/102
f 185/335/103 186/334/103 188/336/103 187/337/103
f 187/337/104 188/336/104 190/338/104 189/339/104
f 189/339/105 190/338/105 192/340/105 191/341/105
f 191/341/106 192/340/106 194/342/106 193/343/106
f 193/343/107 194/342/107 196/344/107 195/345/107
f 195/345/108 196/344/108 198/346/108 197/347/108
f 197/347/109 198/346/109 200/348/109 199/349/109
f 199/349/110 200/348/110 202/350/110 201/351/110
f 201/351/111 202/350/111 204/352/111 203/353/111
f 203/353/112 204/352/112 206/354/112 205/355/112
f 205/355/113 206/354/113 208/356/113 207/357/113
f 207/357/114 208/356/114 210/358/114 209/359/114
f 209/359/115 210/358/115 212/360/115 211/361/115
f 211/361/116 212/360/116 214/362/116 213/363/116
f 213/363/117 214/362/117 216/364/117 215/365/117
f 215/365/118 216/364/118 218/366/118 217/367/118
f 217/367/119 218/366/119 220/368/119 219/369/119
f 219/369/120 220/368/120 222/370/120 221/371/120
f 221/371/121 222/370/121 224/372/121 223/373/121
f 223/373/122 224/372/122 226/374/122 225/375/122
f 225/375/123 226/374/123 228/376/123 227/377/123
f 227/377/124 228/376/124 230/378/124 229/379/124
f 229/379/125 230/378/125 232/380/125 231/381/125
f 231/381/126 232/380/126 234/382/126 233/383/126
f 233/383/127 234/382/127 236/384/127 235/385/127
f 235/385/128 236/384/128 238/386/128 237/387/128
f 237/387/129 238/386/129 240/388/129 239/389/129
f 239/389/130 240/388/130 242/390/130 241/391/130
f 184/392/131 182/393/131 244/394/131 242/395/131 240/396/131 238/397/131 236/398/131 234/399/131 232/400/131 230/401/131 228/402/131 226/403/131 224/404/131 222/405/131 220/406/131 218/407/131 216/408/131 214/409/131 212/410/131 210/411/131 208/412/131 206/413/131 204/414/131 202/415/131 200/416/131 198/417/131 196/418/131 194/419/131 192/420/131 190/421/131 188/422/131 186/423/131
f 241/391/132 242/390/132 244/424/132 243/425/132
f 243/425/133 244/424/133 182/426/133 181/427/133
f 181/428/134 183/429/134 185/430/134 187/431/134 189/432/134 191/433/134 193/434/134 195/435/134 197/436/134 199/437/134 201/438/134 203/439/134 205/440/134 207/441/134 209/442/134 211/443/134 213/444/134 215/445/134 217/446/134 219/447/134 221/448/134 223/449/134 225/450/134 227/451/134 229/452/134 231/453/134 233/454/134 235/455/134 237/456/134 239/457/134 241/458/134 243/459/134
o gaff
v 2.053254 7.727749 -0.131529
v 5.152534 4.837145 -0.093277
v 2.037847 7.709836 -0.129263
v 5.138693 4.821051 -0.091241
v 2.022975 7.692644 -0.122432
v 5.125331 4.805606 -0.085104
v 2.009208 7.676836 -0.111298
v 5.112962 4.791403 -0.075100
v 1.997077 7.663017 -0.096288
v 5.102063 4.778989 -0.061615
v 1.987046 7.651721 -0.077980
v 5.093051 4.768839 -0.045167
v 1.979503 7.643379 -0.057078
v 5.086274 4.761345 -0.026388
v 1.974736 7.638314 -0.034384
v 5.081991 4.756794 -0.005999
v 1.972929 7.636719 -0.010771
v 5.080368 4.755362 0.015216
v 1.974151 7.638656 0.012855
v 5.081466 4.757102 0.036442
v 1.978355 7.644051 0.035584
v 5.085243 4.761949 0.056862
v 1.985380 7.652696 0.056544
v 5.091555 4.769715 0.075693
v 1.994956 7.664259 0.074929
v 5.100158 4.780104 0.092211
v 2.006715 7.678295 0.090032
v 5.110722 4.792715 0.105780
v 2.020204 7.694266 0.101274
v 5.122841 4.807063 0.115880
v 2.034906 7.711557 0.108221
v 5.136050 4.822598 0.122122
v 2.050256 7.729504 0.110608
v 5.149840 4.838722 0.124266
v 2.065663 7.747417 0.108342
v 5.163682 4.854816 0.122230
v 2.080535 7.764609 0.101511
v 5.177044 4.870261 0.116093
v 2.094302 7.780417 0.090377
v 5.189413 4.884464 0.106090
v 2.106433 7.794235 0.075367
v 5.200312 4.896878 0.092605
v 2.116464 7.805532 0.057059
v 5.209324 4.907028 0.076156
v 2.124007 7.813873 0.036157
v 5.216101 4.914522 0.057377
v 2.128774 7.818939 0.013463
v 5.220384 4.919073 0.036988
v 2.130581 7.820534 -0.010151
v 5.222007 4.920506 0.015773
v 2.129359 7.818596 -0.033776
v 5.220909 4.918765 -0.005452
v 2.125155 7.813202 -0.056505
v 5.217132 4.913918 -0.025873
v 2.118130 7.804557 -0.077465
v 5.210820 4.906152 -0.044704
v 2.108554 7.792994 -0.095850
v 5.202217 4.895763 -0.061221
v 2.096795 7.778957 -0.110953
v 5.191653 4.883152 -0.074791
v 2.083306 7.762987 -0.122195
v 5.179534 4.868804 -0.084891
v 2.068604 7.745696 -0.129142
v 5.166325 4.853270 -0.091133
vn -0.0583 -0.0757 -0.9954
vn -0.1898 -0.2163 -0.9577
vn -0.3139 -0.3487 -0.8831
vn -0.4257 -0.4677 -0.7746
vn -0.5211 -0.5687 -0.6364
vn -0.5964 -0.6479 -0.4738
vn -0.6487 -0.7024 -0.2930
vn -0.6760 -0.7299 -0.1010
vn -0.6773 -0.7296 0.0949
vn -0.6525 -0.7013 0.2871
vn -0.6026 -0.6461 0.4685
vn -0.5294 -0.5662 0.6318
vn -0.4357 -0.4645 0.7709
vn -0.3252 -0.3450 0.8804
vn -0.2021 -0.2123 0.9561
vn -0.0711 -0.0715 0.9949
vn 0.0627 0.0720 0.9954
vn 0.1942 0.2126 0.9577
vn 0.3182 0.3449 0.8831
vn 0.4300 0.4638 0.7746
vn 0.5254 0.5648 0.6364
vn 0.6006 0.6440 0.4738
vn 0.6529 0.6985 0.2930
vn 0.6802 0.7260 0.1011
vn 0.6815 0.7256 -0.0948
vn 0.6567 0.6974 -0.2870
vn 0.6068 0.6422 -0.4683
vn 0.5337 0.5623 -0.6316
vn 0.4401 0.4607 -0.7708
vn 0.3296 0.3412 -0.8803
vn 0.7590 -0.6510 0.0141
vn 0.2065 0.2086 -0.9560
vn 0.0755 0.0678 -0.9948
vn -0.7590 0.6510 -0.0141
vt 1.000000 0.500000
vt 1.000000 1.000000
vt 0.968750 1.000000
vt 0.968750 0.500000
vt 0.937500 1.000000
vt 0.937500 0.500000
vt 0.906250 1.000000
vt 0.906250 0.500000
vt 0.875000 1.000000
vt 0.875000 0.500000
vt 0.843750 1.000000
vt 0.843750 0.500000
vt 0.812500 1.000000
vt 0.812500 0.500000
vt 0.781250 1.000000
vt 0.781250 0.500000
vt 0.750000 1.000000
vt 0.750000 0.500000
vt 0.718750 1.000000
vt 0.718750 0.500000
vt 0.687500 1.000000
vt 0.687500 0.500000
vt 0.656250 1.000000
vt 0.656250 0.500000
vt 0.625000 1.000000
vt 0.625000 0.500000
vt 0.593750 1.000000
vt 0.593750 0.500000
vt 0.562500 1.000000
vt 0.562500 0.500000
vt 0.531250 1.000000
vt 0.531250 0.500000
vt 0.500000 1.000000
vt 0.500000 0.500000
vt 0.468750 1.000000
vt 0.468750 0.500000
vt 0.437500 1.000000
vt 0.437500 0.500000
vt 0.406250 1.000000
vt 0.406250 0.500000
vt 0.375000 1.000000
vt 0.375000 0.500000
vt 0.343750 1.000000
vt 0.343750 0.500000
vt 0.312500 1.000000
vt 0.312500 0.500000
vt 0.281250 1.000000
vt 0.281250 0.500000
vt 0.250000 1.000000
vt 0.250000 0.500000
vt 0.218750 1.000000
vt 0.218750 0.500000
vt 0.187500 1.000000
vt 0.187500 0.500000
vt 0.156250 1.000000
vt 0.156250 0.500000
vt 0.125000 1.000000
vt 0.125000 0.500000
vt 0.093750 1.000000
vt 0.093750 0.500000
vt 0.062500 1.000000
vt 0.062500 0.500000
vt 0.296822 0.485388
vt 0.250000 0.490000
vt 0.203178 0.485388
vt 0.158156 0.471731
vt 0.116663 0.449553
vt 0.080294 0.419706
vt 0.050447 0.383337
vt 0.028269 0.341844
vt 0.014612 0.296822
vt 0.010000 0.250000
vt 0.014612 0.203178
vt 0.028269 0.158156
vt 0.050447 0.116663
vt 0.080294 0.080294
vt 0.116663 0.050447
vt 0.158156 0.028269
vt 0.203178 0.014612
vt 0.250000 0.010000
vt 0.296822 0.014612
vt 0.341844 0.028269
vt 0.383337 0.050447
vt 0.419706 0.080294
vt 0.449553 0.116663
vt 0.471731 0.158156
vt 0.485388 0.203178
vt 0.490000 0.250000
vt 0.485388 0.296822
vt 0.471731 0.341844
vt 0.449553 0.383337
vt 0.419706 0.419706
vt 0.383337 0.449553
vt 0.341844 0.471731
vt 0.031250 1.000000
vt 0.031250 0.500000
vt 0.000000 1.000000
vt 0.000000 0.500000
vt 0.750000 0.490000
vt 0.796822 0.485388
vt 0.841844 0.471731
vt 0.883337 0.449553
vt 0.919706 0.419706
vt 0.949553 0.383337
vt 0.971731 0.341844
vt 0.985388 0.296822
vt 0.990000 0.250000
vt 0.985388 0.203178
vt 0.971731 0.158156
vt 0.949553 0.116663
vt 0.919706 0.080294
vt 0.883337 0.050447
vt 0.841844 0.028269
vt 0.796822 0.014612
vt 0.750000 0.010000
vt 0.703178 0.014612
vt 0.658156 0.028269
vt 0.616663 0.050447
vt 0.580294 0.080294
vt 0.550447 0.116663
vt 0.528269 0.158156
vt 0.514612 0.203178
vt 0.510000 0.250000
vt 0.514612 0.296822
vt 0.528269 0.341844
vt 0.550447 0.383337
vt 0.580294 0.419706
vt 0.616663 0.449553
vt 0.658156 0.471731
vt 0.703178 0.485388
s 0
f 245/460/135 246/461/135 248/462/135 247/463/135
f 247/463/136 248/462/136 250/464/136 249/465/136
f 249/465/137 250/464/137 252/466/137 251/467/137
f 251/467/138 252/466/138 254/468/138 253/469/138
f 253/469/139 254/468/139 256/470/139 255/471/139
f 255/471/140 256/470/140 258/472/140 257/473/140
f 257/473/141 258/472/141 260/474/141 259/475/141
f 259/475/142 260/474/142 262/476/142 261/477/142
f 261/477/143 262/476/143 264/478/143 263/479/143
f 263/479/144 264/478/144 266/480/144 265/481/144
f 265/481/145 266/480/145 268/482/145 267/483/145
f 267/483/146 268/482/146 270/484/146 269/485/146
f 269/485/147 270/484/147 272/486/147 271/487/147
f 271/487/148 272/486/148 274/488/148 273/489/148
f 273/489/149 274/488/149 276/490/149 275/491/149
f 275/491/150 276/490/150 278/492/150 277/493/150
f 277/493/151 278/492/151 280/494/151 279/495/151
f 279/495/152 280/494/152 282/496/152 281/497/152
f 281/497/153 282/496/153 284/498/153 283/499/153
f 283/499/154 284/498/154 286/500/154 285/501/154
f 285/501/155 286/500/155 288/502/155 287/503/155
f 287/503/156 288/502/156 290/504/156 289/505/156
f 289/505/157 290/504/157 292/506/157 291/507/157
f 291/507/158 292/506/158 294/508/158 293/509/158
f 293/509/159 294/508/159 296/510/159 295/511/159
f 295/511/160 296/510/160 298/512/160 297/513/160
f 297/513/161 298/512/161 300/514/161 299/515/161
f 299/515/162 300/514/162 302/516/162 301/517/162
f 301/517/163 302/516/163 304/518/163 303/519/163
f 303/519/164 304/518/164 306/520/164 305/521/164
f 248/522/165 246/523/165 308/524/165 306/525/165 304/526/165 302/527/165 300/528/165 298/529/165 296/530/165 294/531/165 292/532/165 290/533/165 288/534/165 286/535/165 284/536/165 282/537/165 280/538/165 278/539/165 276/540/165 274/541/165 272/542/165 270/543/165 268/544/165 266/545/165 264/546/165 262/547/165 260/548/165 258/549/165 256/550/165 254/551/165 252/552/165 250/553/165
f 305/521/166 306/520/166 308/554/166 307/555/166
f 307/555/167 308/554/167 246/556/167 245/557/167
f 245/558/168 247/559/168 249/560/168 251/561/168 253/562/168 255/563/168 257/564/168 259/565/168 261/566/168 263/567/168 265/568/168 267/569/168 269/570/168 271/571/168 273/572/168 275/573/168 277/574/168 279/575/168 281/576/168 283/577/168 285/578/168 287/579/168 289/580/168 291/581/168 293/582/168 295/583/168 297/584/168 299/585/168 301/586/168 303/587/168 305/588/168 307/589/168
